<svg width="203" height="32" viewBox="0 0 203 32" fill="none" xmlns="http://www.w3.org/2000/svg">
<path d="M13 7.91111C14.7379 5.79955 17.113 4.26232 19.796 3.51246C22.479 2.7626 25.337 2.83724 27.9741 3.72604C30.6113 4.61485 32.8968 6.27379 34.514 8.47298C36.1312 10.6722 37 13.3027 37 16C37 18.6973 36.1312 21.3278 34.514 23.527C32.8968 25.7262 30.6113 27.3852 27.9741 28.274C25.337 29.1628 22.4789 29.2374 19.796 28.4875C17.113 27.7377 14.7379 26.2005 13 24.0889L13 7.91111Z" stroke="#A7A7A7" stroke-width="5" stroke-linecap="round" stroke-linejoin="round"/>
<path d="M69.26 9H72.5V23H69.26V9ZM62.9 23H59.66V9H62.9V23ZM69.5 17.26H62.66V14.52H69.5V17.26ZM75.5923 23V12.24H78.5723V15.28L78.1523 14.4C78.4723 13.64 78.9857 13.0667 79.6923 12.68C80.399 12.28 81.259 12.08 82.2723 12.08V14.96C82.139 14.9467 82.019 14.94 81.9123 14.94C81.8057 14.9267 81.6923 14.92 81.5723 14.92C80.719 14.92 80.0257 15.1667 79.4923 15.66C78.9723 16.14 78.7123 16.8933 78.7123 17.92V23H75.5923ZM83.6298 18.62V16.12H89.2898V18.62H83.6298Z" fill="white"/>
<path d="M91.9647 23V9H98.0247C99.278 9 100.358 9.20667 101.265 9.62C102.171 10.02 102.871 10.6 103.365 11.36C103.858 12.12 104.105 13.0267 104.105 14.08C104.105 15.12 103.858 16.02 103.365 16.78C102.871 17.54 102.171 18.1267 101.265 18.54C100.358 18.94 99.278 19.14 98.0247 19.14H93.7647L95.2047 17.68V23H91.9647ZM95.2047 18.04L93.7647 16.5H97.8447C98.8447 16.5 99.5914 16.2867 100.085 15.86C100.578 15.4333 100.825 14.84 100.825 14.08C100.825 13.3067 100.578 12.7067 100.085 12.28C99.5914 11.8533 98.8447 11.64 97.8447 11.64H93.7647L95.2047 10.1V18.04ZM106.178 23V12.24H109.158V15.28L108.738 14.4C109.058 13.64 109.572 13.0667 110.278 12.68C110.985 12.28 111.845 12.08 112.858 12.08V14.96C112.725 14.9467 112.605 14.94 112.498 14.94C112.392 14.9267 112.278 14.92 112.158 14.92C111.305 14.92 110.612 15.1667 110.078 15.66C109.558 16.14 109.298 16.8933 109.298 17.92V23H106.178ZM120.676 23V9H123.356L129.316 18.88H127.896L133.756 9H136.416L136.456 23H133.416L133.396 13.66H133.956L129.276 21.52H127.816L123.036 13.66H123.716V23H120.676ZM146.157 23V20.9L145.957 20.44V16.68C145.957 16.0133 145.751 15.4933 145.337 15.12C144.937 14.7467 144.317 14.56 143.477 14.56C142.904 14.56 142.337 14.6533 141.777 14.84C141.231 15.0133 140.764 15.2533 140.377 15.56L139.257 13.38C139.844 12.9667 140.551 12.6467 141.377 12.42C142.204 12.1933 143.044 12.08 143.897 12.08C145.537 12.08 146.811 12.4667 147.717 13.24C148.624 14.0133 149.077 15.22 149.077 16.86V23H146.157ZM142.877 23.16C142.037 23.16 141.317 23.02 140.717 22.74C140.117 22.4467 139.657 22.0533 139.337 21.56C139.017 21.0667 138.857 20.5133 138.857 19.9C138.857 19.26 139.011 18.7 139.317 18.22C139.637 17.74 140.137 17.3667 140.817 17.1C141.497 16.82 142.384 16.68 143.477 16.68H146.337V18.5H143.817C143.084 18.5 142.577 18.62 142.297 18.86C142.031 19.1 141.897 19.4 141.897 19.76C141.897 20.16 142.051 20.48 142.357 20.72C142.677 20.9467 143.111 21.06 143.657 21.06C144.177 21.06 144.644 20.94 145.057 20.7C145.471 20.4467 145.771 20.08 145.957 19.6L146.437 21.04C146.211 21.7333 145.797 22.26 145.197 22.62C144.597 22.98 143.824 23.16 142.877 23.16ZM155.521 23.16C154.601 23.16 153.714 23.0533 152.861 22.84C152.021 22.6133 151.354 22.3333 150.861 22L151.901 19.76C152.394 20.0667 152.974 20.32 153.641 20.52C154.321 20.7067 154.988 20.8 155.641 20.8C156.361 20.8 156.868 20.7133 157.161 20.54C157.468 20.3667 157.621 20.1267 157.621 19.82C157.621 19.5667 157.501 19.38 157.261 19.26C157.034 19.1267 156.728 19.0267 156.341 18.96C155.954 18.8933 155.528 18.8267 155.061 18.76C154.608 18.6933 154.148 18.6067 153.681 18.5C153.214 18.38 152.788 18.2067 152.401 17.98C152.014 17.7533 151.701 17.4467 151.461 17.06C151.234 16.6733 151.121 16.1733 151.121 15.56C151.121 14.88 151.314 14.28 151.701 13.76C152.101 13.24 152.674 12.8333 153.421 12.54C154.168 12.2333 155.061 12.08 156.101 12.08C156.834 12.08 157.581 12.16 158.341 12.32C159.101 12.48 159.734 12.7133 160.241 13.02L159.201 15.24C158.681 14.9333 158.154 14.7267 157.621 14.62C157.101 14.5 156.594 14.44 156.101 14.44C155.408 14.44 154.901 14.5333 154.581 14.72C154.261 14.9067 154.101 15.1467 154.101 15.44C154.101 15.7067 154.214 15.9067 154.441 16.04C154.681 16.1733 154.994 16.28 155.381 16.36C155.768 16.44 156.188 16.5133 156.641 16.58C157.108 16.6333 157.574 16.72 158.041 16.84C158.508 16.96 158.928 17.1333 159.301 17.36C159.688 17.5733 160.001 17.8733 160.241 18.26C160.481 18.6333 160.601 19.1267 160.601 19.74C160.601 20.4067 160.401 21 160.001 21.52C159.601 22.0267 159.021 22.4267 158.261 22.72C157.514 23.0133 156.601 23.16 155.521 23.16ZM169.066 12.08C169.919 12.08 170.679 12.2533 171.346 12.6C172.026 12.9333 172.559 13.4533 172.946 14.16C173.333 14.8533 173.526 15.7467 173.526 16.84V23H170.406V17.32C170.406 16.4533 170.213 15.8133 169.826 15.4C169.453 14.9867 168.919 14.78 168.226 14.78C167.733 14.78 167.286 14.8867 166.886 15.1C166.499 15.3 166.193 15.6133 165.966 16.04C165.753 16.4667 165.646 17.0133 165.646 17.68V23H162.526V8.16H165.646V15.22L164.946 14.32C165.333 13.6 165.886 13.0467 166.606 12.66C167.326 12.2733 168.146 12.08 169.066 12.08ZM180.894 23.16C180.001 23.16 179.201 22.9867 178.494 22.64C177.801 22.2933 177.261 21.7667 176.874 21.06C176.487 20.34 176.294 19.4267 176.294 18.32V12.24H179.414V17.86C179.414 18.7533 179.601 19.4133 179.974 19.84C180.361 20.2533 180.901 20.46 181.594 20.46C182.074 20.46 182.501 20.36 182.874 20.16C183.247 19.9467 183.541 19.6267 183.754 19.2C183.967 18.76 184.074 18.2133 184.074 17.56V12.24H187.194V23H184.234V20.04L184.774 20.9C184.414 21.6467 183.881 22.2133 183.174 22.6C182.481 22.9733 181.721 23.16 180.894 23.16ZM196.445 23.16C195.538 23.16 194.745 22.96 194.065 22.56C193.385 22.16 192.851 21.5533 192.465 20.74C192.091 19.9133 191.905 18.8733 191.905 17.62C191.905 16.3533 192.085 15.3133 192.445 14.5C192.805 13.6867 193.325 13.08 194.005 12.68C194.685 12.28 195.498 12.08 196.445 12.08C197.458 12.08 198.365 12.3133 199.165 12.78C199.978 13.2333 200.618 13.8733 201.085 14.7C201.565 15.5267 201.805 16.5 201.805 17.62C201.805 18.7533 201.565 19.7333 201.085 20.56C200.618 21.3867 199.978 22.0267 199.165 22.48C198.365 22.9333 197.458 23.16 196.445 23.16ZM190.085 26.88V12.24H193.065V14.44L193.005 17.64L193.205 20.82V26.88H190.085ZM195.905 20.6C196.425 20.6 196.885 20.48 197.285 20.24C197.698 20 198.025 19.66 198.265 19.22C198.518 18.7667 198.645 18.2333 198.645 17.62C198.645 16.9933 198.518 16.46 198.265 16.02C198.025 15.58 197.698 15.24 197.285 15C196.885 14.76 196.425 14.64 195.905 14.64C195.385 14.64 194.918 14.76 194.505 15C194.091 15.24 193.765 15.58 193.525 16.02C193.285 16.46 193.165 16.9933 193.165 17.62C193.165 18.2333 193.285 18.7667 193.525 19.22C193.765 19.66 194.091 20 194.505 20.24C194.918 20.48 195.385 20.6 195.905 20.6Z" fill="#A7A7A7"/>
<path d="M3 7.91111C4.73793 5.79955 7.11296 4.26232 9.79596 3.51246C12.479 2.7626 15.337 2.83724 17.9741 3.72604C20.6113 4.61485 22.8968 6.27379 24.514 8.47298C26.1312 10.6722 27 13.3027 27 16C27 18.6973 26.1312 21.3278 24.514 23.527C22.8968 25.7262 20.6113 27.3852 17.9741 28.274C15.337 29.1628 12.4789 29.2374 9.79595 28.4875C7.11296 27.7377 4.73793 26.2005 3 24.0889L3 7.91111Z" stroke="white" stroke-width="5" stroke-linecap="round" stroke-linejoin="round"/>
</svg>
